<?xml version="1.0" encoding="utf-8"?>
<!-- Svg Vector Icons : http://www.onlinewebfonts.com/icon -->
<!DOCTYPE svg PUBLIC "-//W3C//DTD SVG 1.1//EN" "http://www.w3.org/Graphics/SVG/1.1/DTD/svg11.dtd">
<svg version="1.1" xmlns="http://www.w3.org/2000/svg" xmlns:xlink="http://www.w3.org/1999/xlink" x="0px" y="0px" viewBox="0 0 1000 1000" enable-background="new 0 0 1000 1000" xml:space="preserve">
<metadata> Svg Vector Icons : http://www.onlinewebfonts.com/icon </metadata>
<g><g><path d="M881.3,333c0-108.9-90.7-196-199.6-196c-39.9,0-72.5,10.8-105.3,29C529,104.3,456.5,64.5,373,64.5c-141.6,0-254.1,112.5-254.1,254.1c0,3.6,0,10.8,0,14.4C53.6,362,10,423.7,10,500c0,101.5,79.9,181.4,181.4,181.4h199.6l-90.7,254.1l254.1-254.1h254.1C910.1,681.4,990,601.5,990,500C990.2,423.7,946.5,362,881.3,333z M391.3,794l54.5-148.8h-94.3l83.5-217.9h141.6l-54.7,145.2h90.7L391.3,794z"/></g><g></g><g></g><g></g><g></g><g></g><g></g><g></g><g></g><g></g><g></g><g></g><g></g><g></g><g></g><g></g></g>
</svg>